PathFileType	4	(X/Y/Z)	/Users/itak/Documents/Research/Walk-IL/dataset/trc/00242_00009.trc
DataRate	CameraRate	NumFrames	NumMarkers	Units	OrigDataRate	OrigDataStartFrame	OrigNumFrames
100.000000	100.000000	4	53	mm	100.000000	312	832
Frame#	Time	RPSI			LPSI			L3			STRN			T10			C7			CLAV			RBAK			LBAK			LSHO			LUPA			LAEL			LAOL			LWTS			LWPS			LFRA			LIFD			LHPS			LHTS			RSHO			RUPA			RAEL			RAOL			RWTS			RWPS			RFRA			RIFD			RHTS			RHPS			RBHD			LFHD			RFHD			LBHD			LHIP			RHIP			RASI			LASI			LKNE			LTHI			LANK			LTIP			LTOE			LMT1			LMT5			LHEE			RKNE			RTHI			RANK			RTIP			RTOE			RMT1			RMT5			RHEE			
		X1	Y1	Z1	X2	Y2	Z2	X3	Y3	Z3	X4	Y4	Z4	X5	Y5	Z5	X6	Y6	Z6	X7	Y7	Z7	X8	Y8	Z8	X9	Y9	Z9	X10	Y10	Z10	X11	Y11	Z11	X12	Y12	Z12	X13	Y13	Z13	X14	Y14	Z14	X15	Y15	Z15	X16	Y16	Z16	X17	Y17	Z17	X18	Y18	Z18	X19	Y19	Z19	X20	Y20	Z20	X21	Y21	Z21	X22	Y22	Z22	X23	Y23	Z23	X24	Y24	Z24	X25	Y25	Z25	X26	Y26	Z26	X27	Y27	Z27	X28	Y28	Z28	X29	Y29	Z29	X30	Y30	Z30	X31	Y31	Z31	X32	Y32	Z32	X33	Y33	Z33	X34	Y34	Z34	X35	Y35	Z35	X36	Y36	Z36	X37	Y37	Z37	X38	Y38	Z38	X39	Y39	Z39	X40	Y40	Z40	X41	Y41	Z41	X42	Y42	Z42	X43	Y43	Z43	X44	Y44	Z44	X45	Y45	Z45	X46	Y46	Z46	X47	Y47	Z47	X48	Y48	Z48	X49	Y49	Z49	X50	Y50	Z50	X51	Y51	Z51	X52	Y52	Z52	X53	Y53	Z53	

313	3.12	-525.0897827148438	1017.597778320312	90.9510498046875	-644.9154663085938	1026.127197265625	80.54251098632812	-592.0534057617188	1113.406127929688	89.56636810302734	-579.3814086914062	1288.8525390625	-158.2582550048828	-573.0587158203125	1237.96044921875	95.9669189453125	-566.6528930664062	1498.080932617188	26.1355094909668	-573.5203857421875	1406.777099609375	-134.8791046142578	-495.9718627929688	1359.792846679688	106.6688537597656	-676.6649169921875	1462.9287109375	51.68243408203125	-736.49951171875	1462.5048828125	-35.42621612548828	-817.9537963867188	1349.266967773438	2.983438491821289	-860.7450561523438	1141.322143554688	1.675490617752075	-809.6000366210938	1125.255981445312	71.56850433349609	-828.7625122070312	897.3763427734375	-75.38001251220703	-907.2531127929688	890.5458374023438	-44.92860412597656	-884.5337524414062	1034.878784179688	-12.97091579437256	-854.0941772460938	709.6430053710938	-53.91439056396484	-912.1788330078125	800.9520874023438	-53.68532180786133	-860.2421875	795.509521484375	-98.18788146972656	-400.8096008300781	1447.253173828125	-35.24888610839844	-335.3818359375	1381.12353515625	-14.11016178131104	-305.9309692382812	1100.091186523438	19.70477104187012	-393.7800903320312	1097.977172851562	57.53786087036133	-364.8070678710938	890.8922119140625	-115.58203125	-300.0178833007812	870.8602905273438	-64.47677612304688	-297.4917907714844	1030.655883789062	-6.080267906188965	-375.4163208007812	703.5238647460938	-149.406982421875	-350.5552978515625	776.6353759765625	-167.4929656982422	-302.3070373535156	768.3077392578125	-114.1337356567383	-519.811279296875	1662.20556640625	-40.03371429443359	-559.7944946289062	1656.715576171875	-263.5878601074219	-463.2652893066406	1647.63525390625	-237.6595001220703	-636.364990234375	1667.929809570312	-118.2861709594727	-775.0587158203125	978.57470703125	-40.83860015869141	-409.3594970703125	974.7988891601562	4.620439052581787	-435.9974365234375	1022.856872558594	-94.53595733642578	-712.636474609375	1022.457702636719	-129.8116149902344	-716.8849487304688	525.3638305664062	-226.4312896728516	-750.74853515625	656.9983520507812	-173.4893493652344	-733.501708984375	34.28598403930664	-209.1673736572266	-733.9531860351562	292.0801086425781	-218.3251647949219	-603.4686889648438	48.68125152587891	-388.3273620605469	-587.4066772460938	46.74394989013672	-309.732666015625	-701.3712158203125	32.90677261352539	-333.9900512695312	-704.5457153320312	44.06536865234375	-134.0937652587891	-479.14013671875	489.1771545410156	8.478372573852539	-419.9465026855469	748.5972290039062	-39.77156448364258	-548.618896484375	103.4409332275391	323.6482849121094	-507.4930419921875	375.2134399414062	55.47288513183594	-636.4347534179688	43.5184211730957	151.1609954833984	-665.943359375	59.42000198364258	206.3521575927734	-548.9403076171875	46.23728942871094	227.1182098388672	-591.6414184570312	150.9483184814453	380.9527893066406	
314	3.13	-526.771728515625	1018.902282714844	84.37392425537109	-646.2734375	1028.00927734375	71.94740295410156	-593.9387817382812	1115.023559570312	81.83811950683594	-577.4707641601562	1290.462890625	-165.9786682128906	-575.2505493164062	1239.527587890625	88.40032196044922	-568.2503051757812	1499.583740234375	18.72562789916992	-572.2537841796875	1408.403930664062	-142.4814910888672	-498.4759216308594	1361.53857421875	100.2763977050781	-678.6328735351562	1464.230224609375	42.35851287841797	-736.9349975585938	1463.770629882812	-45.73925399780273	-819.0409545898438	1350.498413085938	-9.014908790588379	-861.8136596679688	1142.566528320312	-11.89746379852295	-811.9087524414062	1126.078979492188	58.72519683837891	-828.05419921875	899.4032592773438	-90.64178466796875	-907.1511840820312	892.1497192382812	-61.62723159790039	-885.3244018554688	1036.185424804688	-27.89034461975098	-853.2918701171875	711.3800659179688	-71.50413513183594	-911.7603149414062	802.6751098632812	-71.40435791015625	-859.0327758789062	797.7695922851562	-115.0703125	-401.4160766601562	1449.379272460938	-40.08533096313477	-336.0795593261719	1383.462036132812	-17.97850608825684	-306.3028259277344	1102.571655273438	16.37396621704102	-394.5979614257812	1100.330688476562	53.18634796142578	-362.7386779785156	892.3623657226562	-118.5232315063477	-298.4153137207031	873.0025634765625	-66.65629577636719	-297.3107604980469	1033.117797851562	-9.050723075866699	-372.4812316894531	704.5820922851562	-150.7884674072266	-347.7302551269531	777.6450805664062	-169.3228454589844	-299.8259887695312	769.9931030273438	-115.4322891235352	-520.6746215820312	1663.853515625	-46.61219024658203	-557.3445434570312	1658.39892578125	-270.7388916015625	-461.2635498046875	1649.572143554688	-243.3461151123047	-636.1403198242188	1669.310913085938	-126.6212463378906	-774.7800903320312	980.5950317382812	-50.96560287475586	-409.8281860351562	975.7509155273438	-0.2498223632574081	-433.9999389648438	1025.071044921875	-100.3720779418945	-711.2443237304688	1024.00048828125	-139.3663330078125	-717.08935546875	525.0740356445312	-230.2790832519531	-750.6546020507812	657.4986572265625	-179.2355194091797	-733.5126342773438	34.21284484863281	-209.1477508544922	-734.2246704101562	291.884521484375	-219.9372863769531	-603.2393798828125	48.41054534912109	-388.194580078125	-587.21142578125	46.69717788696289	-309.5783996582031	-701.35009765625	32.98276138305664	-333.9826965332031	-704.70361328125	43.99825286865234	-134.0529174804688	-475.4132080078125	488.8670349121094	-3.976311922073364	-419.070556640625	749.6879272460938	-47.05618286132812	-548.8710327148438	110.6514739990234	318.6412048339844	-503.6471557617188	375.7132873535156	43.75442123413086	-634.8937377929688	43.48883056640625	149.3143005371094	-665.3380126953125	61.62314987182617	202.7783508300781	-548.6088256835938	48.50699996948242	224.9701843261719	-592.93505859375	160.4154357910156	372.9341735839844	
315	3.14	-528.43994140625	1020.170166015625	78.05461883544922	-647.5885009765625	1029.928100585938	63.55640029907227	-595.788330078125	1116.544921875	74.25264739990234	-575.426513671875	1291.952758789062	-173.5759887695312	-577.4723510742188	1241.01416015625	80.90068817138672	-569.835693359375	1501.033569335938	11.3358907699585	-570.8583374023438	1409.905883789062	-149.9890899658203	-501.0705261230469	1363.200927734375	93.95330047607422	-680.5722045898438	1465.468627929688	32.9565544128418	-737.2489013671875	1464.953002929688	-56.13948822021484	-820.0291748046875	1351.691650390625	-21.13032150268555	-862.8446655273438	1143.791137695312	-25.51886367797852	-814.2598876953125	1126.881591796875	45.85347747802734	-827.1527709960938	901.4872436523438	-105.9921264648438	-906.8593139648438	893.756591796875	-78.47775268554688	-886.0122680664062	1037.474365234375	-42.88216018676758	-852.0045776367188	713.1530151367188	-89.3310546875	-911.0579833984375	804.4157104492188	-89.34828948974609	-857.5217895507812	800.119140625	-132.1331176757812	-402.0003356933594	1451.40771484375	-44.74825286865234	-336.7961730957031	1385.706909179688	-21.62908554077148	-306.6120910644531	1104.964721679688	13.20884132385254	-395.3407592773438	1102.547607421875	48.97220993041992	-360.6271057128906	893.936767578125	-121.5244750976562	-296.7899475097656	875.1653442382812	-68.94342803955078	-297.0684509277344	1035.506958007812	-11.92853546142578	-369.5833435058594	705.7761840820312	-152.4189147949219	-344.9356689453125	778.8045043945312	-171.3288116455078	-297.35791015625	771.7676391601562	-116.9441909790039	-521.4666137695312	1665.390747070312	-53.12217330932617	-554.72802734375	1660.029541015625	-277.7959899902344	-459.1252746582031	1651.4462890625	-248.9146728515625	-635.7933959960938	1670.612182617188	-134.9285125732422	-774.361083984375	982.5859375	-60.97090148925781	-410.2975463867188	976.5563354492188	-4.782066822052002	-432.533203125	1026.75244140625	-105.4987335205078	-709.7284545898438	1025.419311523438	-148.7534027099609	-717.2080688476562	524.7945556640625	-233.79833984375	-750.41650390625	658.0426025390625	-184.7742309570312	-733.52587890625	34.13639831542969	-209.1325378417969	-734.4773559570312	291.6799621582031	-221.44873046875	-603.0117797851562	48.13458251953125	-388.0803527832031	-587.0511474609375	46.64397811889648	-309.4502868652344	-701.3321533203125	33.02368545532227	-333.9810485839844	-704.8695678710938	43.95204162597656	-134.01416015625	-471.3910217285156	488.5458068847656	-16.43972396850586	-418.0528259277344	750.701904296875	-54.07006072998047	-549.2527465820312	118.193229675293	312.9432983398438	-499.6307373046875	376.2533569335938	31.74433135986328	-632.4295043945312	43.45711135864258	146.3261566162109	-664.1422729492188	64.01670837402344	197.9642944335938	-547.8546752929688	51.44827651977539	222.2773590087891	-594.6470336914062	169.7489013671875	364.0891418457031	
316	3.15	-530.066650390625	1021.373291015625	72.00405883789062	-648.83740234375	1031.836303710938	55.39507675170898	-597.5560302734375	1117.949096679688	66.82032775878906	-573.2461547851562	1293.292846679688	-181.0248413085938	-579.7094116210938	1242.410888671875	73.47139739990234	-571.406982421875	1502.427490234375	3.963227033615112	-569.337158203125	1411.258056640625	-157.39306640625	-503.7417907714844	1364.774169921875	87.70242309570312	-682.4684448242188	1466.63037109375	23.4834041595459	-737.43115234375	1466.030029296875	-66.61960601806641	-820.900146484375	1352.822021484375	-33.35890579223633	-863.8358764648438	1144.970092773438	-39.20863723754883	-816.649658203125	1127.637573242188	32.93904113769531	-826.0446166992188	903.5962524414062	-121.4044952392578	-906.370849609375	895.343505859375	-95.46559906005859	-886.5807495117188	1038.721557617188	-57.95111846923828	-850.2802734375	714.9468994140625	-107.3697052001953	-910.0659790039062	806.151123046875	-107.492546081543	-855.6979370117188	802.5292358398438	-149.3396301269531	-402.5518493652344	1453.306518554688	-49.2491340637207	-337.53076171875	1387.825073242188	-25.0678882598877	-306.8797302246094	1107.23779296875	10.24144077301025	-396.0422973632812	1104.596801757812	44.90353775024414	-358.4578247070312	895.60009765625	-124.5907440185547	-295.1565856933594	877.30810546875	-71.30058288574219	-296.7784118652344	1037.784790039062	-14.67372894287109	-366.678466796875	707.1014404296875	-154.3713226318359	-342.1138000488281	780.113037109375	-173.5360565185547	-294.8955993652344	773.6018676757812	-118.6676635742188	-522.1920166015625	1666.801025390625	-59.57269668579102	-551.9425659179688	1661.588134765625	-284.7633361816406	-456.8419189453125	1653.238525390625	-254.3659515380859	-635.3180541992188	1671.814819335938	-143.2156982421875	-773.7762451171875	984.4927978515625	-70.83963012695312	-410.7597961425781	977.2050170898438	-8.983558654785156	-431.5127258300781	1027.889892578125	-109.9630355834961	-708.0750732421875	1026.6943359375	-157.9385070800781	-717.2095947265625	524.533203125	-237.0855712890625	-750.0253295898438	658.6323852539062	-190.1828308105469	-733.5458374023438	34.0604362487793	-209.1275177001953	-734.687744140625	291.4797668457031	-222.9358062744141	-602.786376953125	47.83868408203125	-387.99169921875	-586.923828125	46.57938766479492	-309.3525085449219	-701.3204956054688	33.03590774536133	-333.9881896972656	-705.041259765625	43.93190765380859	-133.9843139648438	-467.1557312011719	488.2753601074219	-28.8563404083252	-416.858154296875	751.6536865234375	-60.76682662963867	-549.884765625	125.9041442871094	306.4941101074219	-495.5364379882812	376.8611755371094	19.51048278808594	-628.7659912109375	43.47050476074219	141.8852386474609	-662.1441040039062	66.5155029296875	191.6250762939453	-546.5350341796875	55.13843536376953	218.8819732666016	-596.9140014648438	178.7169952392578	354.3891296386719	
